<svg width="442" height="92" viewBox="0 0 442 92" fill="none" xmlns="http://www.w3.org/2000/svg">
<g clip-path="url(#clip0_208_1192)">
<mask id="mask0_208_1192" style="mask-type:luminance" maskUnits="userSpaceOnUse" x="108" y="8" width="334" height="80">
<path d="M442 8.78516H108.859V87.1713H442V8.78516Z" fill="white"/>
</mask>
<g mask="url(#mask0_208_1192)">
<path d="M129.503 72.4875C129.503 77.6323 128.217 81.3671 125.659 83.692C123.086 86.0169 119.361 87.1718 114.484 87.1718H108.859V78.0223H112.569C114.783 78.0223 116.354 77.5873 117.281 76.7323C118.194 75.8774 118.658 74.4524 118.658 72.4875V9.64062H129.503V72.4875Z" fill="white"/>
<path d="M191.21 9.64062V62.183H180.364V55.9883C178.659 58.1482 176.415 59.8582 173.663 61.0881C170.91 62.333 167.978 62.948 164.867 62.948C160.738 62.948 157.058 62.093 153.782 60.3681C150.521 58.6582 147.948 56.1083 146.078 52.7335C144.208 49.3587 143.266 45.2939 143.266 40.5241V9.64062H154.006V38.9192C154.006 43.629 155.173 47.2288 157.522 49.7487C159.87 52.2685 163.072 53.5135 167.126 53.5135C171.179 53.5135 174.396 52.2535 176.774 49.7487C179.153 47.2438 180.334 43.629 180.334 38.9192V9.64062H191.18H191.21Z" fill="white"/>
<path d="M242.999 11.365C246.26 13.0749 248.818 15.6248 250.658 18.9997C252.498 22.3745 253.41 26.4393 253.41 31.2091V62.1975H242.67V32.814C242.67 28.1042 241.503 24.5044 239.154 21.9845C236.806 19.4796 233.604 18.2197 229.55 18.2197C225.497 18.2197 222.28 19.4796 219.902 21.9845C217.523 24.5044 216.342 28.1042 216.342 32.814V62.1825H205.496V9.64011H216.342V15.6548C218.122 13.4949 220.38 11.815 223.148 10.6001C225.9 9.38513 228.832 8.78516 231.944 8.78516C236.058 8.78516 239.753 9.64011 243.029 11.365H242.999Z" fill="white"/>
<path d="M278.049 9.64062V62.183H267.203V9.64062H278.049Z" fill="white"/>
<path d="M310.659 11.26C313.83 9.61012 317.406 8.78516 321.4 8.78516C325.962 8.78516 330.136 9.9101 333.906 12.175C337.675 14.4249 340.637 17.5897 342.791 21.6695C344.945 25.7343 346.022 30.4141 346.022 35.6938C346.022 40.9736 344.945 45.6833 342.791 49.8531C340.637 54.0229 337.675 57.2628 333.906 59.5727C330.136 61.8975 325.962 63.0525 321.4 63.0525C317.406 63.0525 313.86 62.2425 310.749 60.6226C307.637 59.0027 305.109 56.9778 303.134 54.5629V87.1713H292.289V9.64011H303.134V17.3647C304.974 14.9499 307.473 12.91 310.644 11.26H310.659ZM332.769 26.2743C331.273 23.6344 329.313 21.6395 326.875 20.2596C324.436 18.8947 321.819 18.2047 319.021 18.2047C316.224 18.2047 313.711 18.9097 311.272 20.3046C308.834 21.6995 306.859 23.7394 305.378 26.4093C303.882 29.0792 303.149 32.229 303.149 35.8438C303.149 39.4586 303.897 42.6235 305.378 45.3384C306.874 48.0382 308.834 50.0931 311.272 51.4881C313.711 52.883 316.299 53.588 319.021 53.588C321.744 53.588 324.421 52.868 326.875 51.4431C329.313 50.0181 331.288 47.9332 332.769 45.2034C334.265 42.4735 334.998 39.2937 334.998 35.6638C334.998 32.034 334.25 28.9142 332.769 26.2743Z" fill="white"/>
<path d="M404.437 39.9693H364.391C364.705 44.1691 366.261 47.529 369.059 50.0788C371.841 52.6287 375.267 53.8886 379.335 53.8886C385.17 53.8886 389.283 51.4438 391.692 46.539H403.39C401.804 51.3688 398.932 55.3286 394.788 58.4034C390.63 61.4933 385.484 63.0232 379.335 63.0232C374.324 63.0232 369.836 61.8983 365.872 59.6334C361.908 57.3835 358.797 54.2036 356.553 50.0938C354.294 45.999 353.172 41.2443 353.172 35.8445C353.172 30.4448 354.264 25.69 356.448 21.5802C358.632 17.4854 361.714 14.3206 365.678 12.0857C369.642 9.8658 374.19 8.75586 379.321 8.75586C384.452 8.75586 388.67 9.83581 392.544 11.9957C396.404 14.1556 399.426 17.1854 401.58 21.1003C403.734 25.0151 404.811 29.5148 404.811 34.5996C404.811 36.5645 404.676 38.3494 404.437 39.9393V39.9693ZM393.502 31.1948C393.442 27.19 392.006 23.9801 389.224 21.5652C386.426 19.1504 382.971 17.9354 378.857 17.9354C375.117 17.9354 371.916 19.1204 369.253 21.5052C366.59 23.8901 365.005 27.115 364.496 31.1798H393.502V31.1948Z" fill="white"/>
<path d="M432.635 11.02C435.268 9.53512 438.394 8.78516 441.999 8.78516V20.0346H439.247C434.998 20.0346 431.782 21.1145 429.598 23.2744C427.414 25.4343 426.322 29.1842 426.322 34.5239V62.1825H415.477V9.64011H426.322V17.2747C427.908 14.6049 430.017 12.52 432.65 11.035L432.635 11.02Z" fill="white"/>
</g>
<path d="M78.8076 18.9958V73.0618C78.8076 74.1104 78.6875 75.1741 78.5375 76.2227C78.0574 79.5335 76.5722 82.4398 74.3518 85.0315C71.3964 88.4621 67.5408 90.6643 62.89 91.5781C61.4798 91.8478 60.0546 91.9676 58.6293 91.9676C39.4863 92.0126 20.3582 91.9976 1.21519 91.9976H0C0.330053 91.683 0.615098 91.2935 0.945151 91.0238C2.28036 89.8703 3.48055 88.6269 4.87578 87.5333C8.20631 84.9266 10.6067 82.7394 14.6123 82.7544C29.1646 82.7993 43.717 82.7844 58.2693 82.7694C61.2248 82.7694 63.8502 81.9454 65.9805 79.938C67.9908 78.0504 68.966 75.7583 68.981 73.0917V18.9958C68.981 16.2992 68.0208 13.9772 65.9805 12.0596C63.8502 10.0522 61.2248 9.22822 58.2693 9.22822C43.717 9.22822 29.1646 9.19826 14.6123 9.22822C10.5917 9.22822 8.20631 7.056 4.87578 4.44932C3.46555 3.3707 2.28036 2.12729 0.945151 0.973757C0.615098 0.704101 0.330053 0.314599 0 0H1.21519C20.3432 0 39.4863 0 58.6143 0.0299618C60.0396 0.0299618 61.4798 0.149809 62.875 0.419465C67.5258 1.3333 71.3814 3.53549 74.3368 6.96611C76.5572 9.54282 78.0424 12.4641 78.5225 15.7749C78.6725 16.8385 78.7926 17.9321 78.7926 19.0107L78.8076 18.9958Z" fill="#B3D77B"/>
<path d="M23.2603 44.0909C26.9033 44.0909 29.8565 41.1377 29.8565 37.4947C29.8565 33.8517 26.9033 30.8984 23.2603 30.8984C19.6173 30.8984 16.6641 33.8517 16.6641 37.4947C16.6641 41.1377 19.6173 44.0909 23.2603 44.0909Z" fill="white"/>
<path fill-rule="evenodd" clip-rule="evenodd" d="M36.4503 50.1376L22.8595 67.3507L9.37109 50.1268L14.6607 45.8369L22.8811 56.3338L31.1776 45.8262L36.4503 50.1376Z" fill="#B3D77B"/>
<path fill-rule="evenodd" clip-rule="evenodd" d="M43.3952 64.2991L22.8445 76.377L2.08203 64.3392L5.3754 58.3446L22.822 68.4599L40.0679 58.3242L43.3952 64.2991Z" fill="#B3D77B"/>
</g>
<defs>
<clipPath id="clip0_208_1192">
<rect width="442" height="92" fill="white"/>
</clipPath>
</defs>
</svg>
